<svg width="81" height="54" viewBox="0 0 81 54" fill="none" xmlns="http://www.w3.org/2000/svg">
<path opacity="0.07" d="M60.632 53.736C57.2187 53.736 54.1893 52.84 51.544 51.048C48.8987 49.256 46.808 46.824 45.272 43.752C43.736 40.68 42.968 37.2667 42.968 33.512C42.968 27.368 44.9733 21.352 48.984 15.464C53.08 9.49066 58.84 4.58399 66.264 0.743988L80.6 8.424C75.736 10.8133 71.5973 13.5867 68.184 16.744C64.856 19.9013 62.5947 23.6133 61.4 27.88C65.4107 28.2213 68.6533 29.4587 71.128 31.592C73.688 33.64 74.968 36.4987 74.968 40.168C74.968 43.8373 73.6453 47.0373 71 49.768C68.44 52.4133 64.984 53.736 60.632 53.736ZM17.88 53.736C14.4667 53.736 11.4373 52.84 8.792 51.048C6.14667 49.256 4.056 46.824 2.52 43.752C0.984001 40.68 0.216001 37.2667 0.216001 33.512C0.216001 27.368 2.22133 21.352 6.232 15.464C10.328 9.49066 16.088 4.58399 23.512 0.743988L37.848 8.424C32.984 10.8133 28.8453 13.5867 25.432 16.744C22.104 19.9013 19.8427 23.6133 18.648 27.88C22.6587 28.2213 25.9013 29.4587 28.376 31.592C30.936 33.64 32.216 36.4987 32.216 40.168C32.216 43.8373 30.8933 47.0373 28.248 49.768C25.688 52.4133 22.232 53.736 17.88 53.736Z" fill="#364855"/>
</svg>
