<?xml version="1.0" encoding="utf-8"?>
<!-- Generator: Adobe Illustrator 24.1.1, SVG Export Plug-In . SVG Version: 6.00 Build 0)  -->
<svg version="1.1" id="Layer_1" xmlns="http://www.w3.org/2000/svg" xmlns:xlink="http://www.w3.org/1999/xlink" x="0px" y="0px"
	 viewBox="0 0 25 22" style="enable-background:new 0 0 25 22;" xml:space="preserve">
<style type="text/css">
	.st0{fill:#004084;}
	.st1{fill:#003974;}
</style>
<g>
	<path d="M-153.8,302.7h16.8c0.5-1.9,1.1-3.9,1.7-5.4l0,0l0,0c1-2.3,2.4-3.9,4.2-3.9h3.2v-8.5c0-1.1,0.9-2,2-2h8.2v-18.4h-5.9
		c-2.2,0-4.2-0.9-5.7-2.4c-0.8-0.8-1.4-1.8-1.8-2.9c-0.1,0-0.1,0-0.2,0l-82.5-0.2c-1.6,0-3-1.3-3-3c0-1.6,1.3-3,3-3l82.5,0.2
		c0.1,0,0.2,0,0.3,0c0.4-0.9,1-1.8,1.7-2.5c1.5-1.5,3.5-2.4,5.7-2.4h5.9v-4.7c0-0.8,0.7-1.5,1.5-1.5c0.8,0,1.5,0.7,1.5,1.5v4.7h5.9
		c2.2,0,4.2,0.9,5.7,2.4l0,0l0,0c0.7,0.7,1.3,1.6,1.7,2.6c0.1,0,0.2,0,0.3,0l82.8,0.2c1.6,0,3,1.3,3,3c0,1.7-1.3,3-3,3l-82.8-0.2
		c-0.1,0-0.1,0-0.2,0c-0.4,1.1-1,2-1.8,2.8l0,0c-1.5,1.5-3.5,2.4-5.7,2.4h-5.9v18.4h8.1c1.1,0,2,0.9,2,2v8.5h1.2
		c1.8,0,3.2,1.6,4.2,3.9c0,0,0,0.1,0,0.1c0.7,1.5,1.2,3.4,1.7,5.3h11.6c5.9,0,11.3,2.4,15.2,6.3c3.2,3.2,5.4,7.3,6.1,12l62-5.1
		l4.5-9c-0.9-0.7-1.8-1.5-2.7-2.4c-4.9-4.9-7.9-11.6-7.9-19s3-14.2,7.9-19c4.9-4.9,11.6-7.9,19-7.9s14.2,3,19,7.9
		c4.9,4.9,7.9,11.6,7.9,19c0,7.4-3,14.2-7.9,19c-4.9,4.9-11.6,7.9-19,7.9l-0.1,0L9,334.8l0,0c-0.3,0.9-1.1,1.5-2.1,1.8L-93,361.8
		c-2.3,2.9-7.8,9-13.9,13.4c-4.4,3.1-9.2,5.5-13.7,5.5h-8.8v13v4.6h7.7h2.4l1.5-1.5l5-5c1.2-1.2,3.1-1.2,4.2,0
		c1.2,1.2,1.2,3.1,0,4.2l-7.4,7.4c-0.6,0.6-1.4,0.9-2.1,0.9l0,0H-182c-2.9,0-5.5-1.2-7.4-3.1c-1.9-1.9-3.1-4.5-3.1-7.4
		c0-1.7,1.3-3,3-3c1.7,0,3,1.3,3,3c0,0.3,0,0.7,0.1,1c0.2,0.8,0.6,1.6,1.2,2.1c0.8,0.8,1.9,1.3,3.1,1.3h6.8h9.3v-4.5v-13.1h-15.3
		c0,0-0.1,0-0.1,0c-9.4,0.4-16.8-1.8-22-5.5c-3.7-2.6-6.2-5.8-7.6-9.4c-1.4-3.7-1.6-7.7-0.4-11.7c1.3-4.7,4.5-9.3,9.6-13.3
		c1.2-8.4,4.2-17.7,11.1-25C-183.5,308.1-172,302.7-153.8,302.7L-153.8,302.7z M-108.9,252.4h-14.7c-1.1,0-2.1,0.5-2.8,1.2
		c-0.7,0.7-1.2,1.7-1.2,2.8v0c0,1.1,0.5,2.1,1.2,2.8c0.7,0.7,1.7,1.2,2.8,1.2h14.7c1.1,0,2.1-0.5,2.8-1.2l0,0l0,0
		c0.7-0.7,1.2-1.7,1.2-2.8v0c0-1.1-0.5-2.1-1.2-2.8l0,0C-106.7,252.8-107.7,252.4-108.9,252.4z M-123.9,293.3h15.3v-6.5h-15.3V293.3
		z M-132.9,302.7h31.4c-0.4-1.4-0.8-2.7-1.2-3.8l0-0.1c-0.4-0.9-0.4-1.5-0.5-1.5h-27.8c-0.1,0-0.1,0.6-0.5,1.5l0,0
		C-132.1,299.9-132.6,301.3-132.9,302.7z M-132.4,398.3v-4.6v-13h-30.6v13.1v4.5H-132.4z M18.3,277.3c2.2,0,4.3,0.9,5.8,2.4l0,0l0,0
		l0,0c1.5,1.5,2.4,3.5,2.4,5.8c0,2.2-0.9,4.3-2.4,5.8c-1.5,1.5-3.5,2.4-5.8,2.4c-2.2,0-4.3-0.9-5.8-2.4l0,0l0,0l0,0
		c-1.5-1.5-2.4-3.5-2.4-5.8c0-2.2,0.9-4.3,2.4-5.8l0,0C14,278.2,16,277.3,18.3,277.3L18.3,277.3z M21.9,281.8
		c-0.9-0.9-2.2-1.5-3.6-1.5c-1.4,0-2.7,0.6-3.6,1.5c-0.9,0.9-1.5,2.2-1.5,3.6c0,1.4,0.6,2.7,1.5,3.6l0,0c0.9,0.9,2.2,1.5,3.6,1.5
		c1.4,0,2.7-0.6,3.6-1.5c0.9-0.9,1.5-2.2,1.5-3.6C23.4,284,22.8,282.7,21.9,281.8L21.9,281.8L21.9,281.8z M-129.8,323.5h7.3
		c1.1,0,2,0.9,2,2v7.8h7.8c1.1,0,2,0.9,2,2v7.3c0,1.1-0.9,2-2,2h-7.8v7.8c0,1.1-0.9,2-2,2h-7.3c-1.1,0-2-0.9-2-2v-7.8h-7.8
		c-1.1,0-2-0.9-2-2v-7.3c0-1.1,0.9-2,2-2h7.8v-7.8C-131.8,324.4-130.9,323.5-129.8,323.5z M-124.5,327.5h-3.3v7.8c0,1.1-0.9,2-2,2
		h-7.8v3.3h7.8c1.1,0,2,0.9,2,2v7.8h3.3v-7.8c0-1.1,0.9-2,2-2h7.8v-3.3h-7.8c-1.1,0-2-0.9-2-2V327.5z M-126.2,314.7
		c6.7,0,12.8,2.7,17.2,7.1c4.4,4.4,7.1,10.5,7.1,17.2c0,6.7-2.7,12.8-7.1,17.2c-4.4,4.4-10.5,7.1-17.2,7.1c-6.7,0-12.8-2.7-17.2-7.1
		c-4.4-4.4-7.1-10.5-7.1-17.2c0-6.7,2.7-12.8,7.1-17.2C-138.9,317.4-132.9,314.7-126.2,314.7L-126.2,314.7z M-111.1,323.9
		c-3.9-3.9-9.2-6.2-15.1-6.2c-5.9,0-11.2,2.4-15.1,6.2c-3.9,3.9-6.2,9.2-6.2,15.1c0,5.9,2.4,11.2,6.2,15.1c3.9,3.9,9.2,6.2,15.1,6.2
		c5.9,0,11.2-2.4,15.1-6.2c3.9-3.9,6.2-9.2,6.2-15.1C-104.9,333.1-107.3,327.8-111.1,323.9z M7.1,309.9L2,320
		c-0.5,1-1.4,1.6-2.4,1.7l0,0l-65.4,5.4L-87,354.1l91-23l7.9-19.5C10.3,311.2,8.6,310.7,7.1,309.9z M33.1,270.6
		c-3.8-3.8-9-6.1-14.8-6.1s-11,2.3-14.8,6.1c-3.8,3.8-6.1,9-6.1,14.8s2.3,11,6.1,14.8c3.8,3.8,9,6.1,14.8,6.1s11-2.3,14.8-6.1
		c3.8-3.8,6.1-9,6.1-14.8C39.2,279.7,36.9,274.4,33.1,270.6z M-152.2,308.7c-1.1,7.1-4.9,25.3-17.5,30.1
		c-11.3,4.4-22.4,5.3-27.1,5.5c-0.2,0.2-0.3,0.3-0.5,0.5c-4.5,3.3-7.3,7.1-8.3,10.8c-0.8,2.7-0.7,5.5,0.3,7.9c1,2.5,2.8,4.8,5.4,6.7
		c4.2,2.9,10.4,4.7,18.4,4.4c0.1,0,0.2,0,0.4,0h60.6c3.1,0,6.7-1.9,10.2-4.3c6.1-4.4,11.4-10.5,13.1-12.8c0.1-0.1,0.2-0.3,0.3-0.4
		l26.5-34c-0.2-3.9-1.9-7.4-4.5-10c-2.8-2.8-6.7-4.6-10.9-4.6C-85.9,308.7-152.2,308.7-152.2,308.7z M-195.7,340.3
		c4.9-0.3,14.7-1.4,24.6-5.2c10.3-4,13.8-19.6,14.9-26.4c-14.9,0.4-24.3,5-30.1,11.2C-191.9,325.8-194.5,333.3-195.7,340.3
		L-195.7,340.3z"/>
</g>
<g>
	<path class="st0" d="M62.3-39.9c1.7,0,2.8,0.5,3.5,1.2c0.7,0.7,0.9,1.6,1.1,2.4c0.5,0.4,0.8,0.8,0.9,1.3c0.1,0.4,0.1,0.8,0,1.1
		c-0.1,0.3-0.4,0.7-0.7,0.9c-0.5,0.3-1.2,0.6-2.1,0.5c0,0,0,0,0,0h-1.4v1.2v0.4h0.9H65c0.1,0,0.2,0,0.3-0.1c0.1-0.1,0.1-0.1,0.1-0.2
		c0,0,0-0.1,0-0.1c0-0.2,0.1-0.3,0.3-0.3c0.2,0,0.3,0.1,0.3,0.3c0,0.3-0.1,0.5-0.3,0.7c-0.2,0.2-0.4,0.3-0.7,0.3h-6.1l0,0
		c-0.1,0-0.1,0-0.2-0.1L58-31c-0.1-0.1-0.1-0.3,0-0.4c0.1-0.1,0.3-0.1,0.4,0l0.5,0.5l0.1,0.1h0.2H60v-0.4v-1.2h-0.8
		c-0.4,0-0.9-0.2-1.3-0.5c-0.6-0.4-1.1-1-1.3-1.3L47-36.7c-0.1,0-0.2-0.1-0.2-0.2l0,0L46-39l0,0c-0.7,0-1.3-0.3-1.8-0.7
		c-0.5-0.5-0.7-1.1-0.7-1.8c0-0.7,0.3-1.3,0.7-1.8c0.5-0.5,1.1-0.7,1.8-0.7c0.7,0,1.3,0.3,1.8,0.7c0.5,0.5,0.7,1.1,0.7,1.8
		c0,0.7-0.3,1.3-0.7,1.8c-0.1,0.1-0.2,0.2-0.3,0.2l0.4,0.9l5.9,0.5c0.1-0.4,0.3-0.8,0.6-1.1c0.4-0.4,0.9-0.6,1.4-0.6h1.1
		c0-0.2,0.1-0.4,0.2-0.5c0,0,0,0,0,0c0.1-0.2,0.2-0.4,0.4-0.4h0.1v-0.8c0-0.1,0.1-0.2,0.2-0.2h0.8v-1.7H58c-0.2,0-0.4-0.1-0.5-0.2
		l0,0c-0.1-0.1-0.1-0.2-0.2-0.3c0,0,0,0,0,0l-7.9,0c-0.2,0-0.3-0.1-0.3-0.3c0-0.2,0.1-0.3,0.3-0.3l7.9,0c0,0,0,0,0,0
		c0-0.1,0.1-0.2,0.2-0.2l0,0l0,0c0.1-0.1,0.3-0.2,0.5-0.2h0.6v-0.4c0-0.1,0.1-0.1,0.1-0.1c0.1,0,0.1,0.1,0.1,0.1v0.4h0.6
		c0.2,0,0.4,0.1,0.5,0.2c0.1,0.1,0.1,0.1,0.2,0.2c0,0,0,0,0,0l7.8,0c0.2,0,0.3,0.1,0.3,0.3c0,0.2-0.1,0.3-0.3,0.3l-7.8,0
		c0,0,0,0,0,0c0,0.1-0.1,0.2-0.2,0.3c-0.1,0.1-0.3,0.2-0.5,0.2h-0.6v1.7h0.8c0.1,0,0.2,0.1,0.2,0.2v0.8h0.3c0.2,0,0.3,0.2,0.4,0.4
		l0,0l0,0c0.1,0.1,0.1,0.3,0.2,0.5L62.3-39.9L62.3-39.9z M57.8-44.6L57.8-44.6c-0.1,0.1-0.1,0.2-0.1,0.3v0c0,0.1,0,0.2,0.1,0.3l0,0
		l0,0c0.1,0.1,0.2,0.1,0.3,0.1h1.4c0.1,0,0.2,0,0.3-0.1c0.1-0.1,0.1-0.2,0.1-0.3v0c0-0.1,0-0.2-0.1-0.3c-0.1-0.1-0.2-0.1-0.3-0.1H58
		C57.9-44.7,57.8-44.6,57.8-44.6z M59.5-41.4H58v0.6h1.5V-41.4z M60.2-40.3L60.2-40.3c0-0.1,0-0.1-0.1-0.1h-2.6c0,0,0,0.1,0,0.1l0,0
		c0,0.1-0.1,0.2-0.1,0.4h3C60.3-40,60.2-40.2,60.2-40.3z M63.2-30.8v-0.4v-1.2h-2.9v1.2v0.4H63.2z M45.9-42.3c0.2,0,0.4,0.1,0.5,0.2
		l0,0c0.1,0.1,0.2,0.3,0.2,0.5c0,0.2-0.1,0.4-0.2,0.5l0,0l0,0l0,0c-0.1,0.1-0.3,0.2-0.5,0.2c-0.2,0-0.4-0.1-0.5-0.2
		c-0.1-0.1-0.2-0.3-0.2-0.5c0-0.2,0.1-0.4,0.2-0.5l0,0l0,0l0,0C45.5-42.2,45.7-42.3,45.9-42.3L45.9-42.3z M45.6-41.9L45.6-41.9
		c-0.1,0.1-0.1,0.2-0.1,0.3c0,0.1,0.1,0.3,0.1,0.3c0.1,0.1,0.2,0.1,0.3,0.1c0.1,0,0.3-0.1,0.3-0.1l0,0c0.1-0.1,0.1-0.2,0.1-0.3
		c0-0.1-0.1-0.3-0.1-0.3C46.2-42,46.1-42,45.9-42C45.8-42,45.7-42,45.6-41.9L45.6-41.9z M60.2-37.7v0.7H61c0.1,0,0.2,0.1,0.2,0.2
		v0.7c0,0.1-0.1,0.2-0.2,0.2h-0.7v0.7c0,0.1-0.1,0.2-0.2,0.2h-0.7c-0.1,0-0.2-0.1-0.2-0.2v-0.7h-0.7c-0.1,0-0.2-0.1-0.2-0.2v-0.7
		c0-0.1,0.1-0.2,0.2-0.2h0.7v-0.7c0-0.1,0.1-0.2,0.2-0.2H60C60.1-37.9,60.2-37.8,60.2-37.7z M59.5-36.8c0,0.1-0.1,0.2-0.2,0.2h-0.7
		v0.3h0.7c0.1,0,0.2,0.1,0.2,0.2v0.7h0.3v-0.7c0-0.1,0.1-0.2,0.2-0.2h0.7v-0.3H60c-0.1,0-0.2-0.1-0.2-0.2v-0.7h-0.3V-36.8z
		 M59.7-38.8c0.6,0,1.2,0.3,1.6,0.7c0.4,0.4,0.7,1,0.7,1.6c0,0.6-0.3,1.2-0.7,1.6c-0.4,0.4-1,0.7-1.6,0.7c-0.6,0-1.2-0.3-1.6-0.7
		c-0.4-0.4-0.7-1-0.7-1.6c0-0.6,0.3-1.2,0.7-1.6S59-38.8,59.7-38.8L59.7-38.8z M57.6-36.5c0,0.6,0.2,1.1,0.6,1.4
		c0.4,0.4,0.9,0.6,1.4,0.6s1.1-0.2,1.4-0.6c0.4-0.4,0.6-0.9,0.6-1.4c0-0.6-0.2-1.1-0.6-1.4c-0.4-0.4-0.9-0.6-1.4-0.6
		c-0.6,0-1.1,0.2-1.4,0.6C57.9-37.5,57.6-37,57.6-36.5z M46.5-39.1l0.8,1.9l8.6,2.2l-2-2.6l-6.2-0.5l0,0c-0.1,0-0.2-0.1-0.2-0.2
		l-0.5-1C46.9-39.1,46.7-39.1,46.5-39.1z M44-41.5c0,0.5,0.2,1,0.6,1.4c0.4,0.4,0.9,0.6,1.4,0.6c0.5,0,1-0.2,1.4-0.6
		c0.4-0.4,0.6-0.9,0.6-1.4s-0.2-1-0.6-1.4c-0.4-0.4-0.9-0.6-1.4-0.6c-0.5,0-1,0.2-1.4,0.6C44.2-42.6,44-42.1,44-41.5z M55.8-39.3
		c-0.4,0-0.8,0.2-1,0.4c-0.2,0.2-0.4,0.6-0.4,0.9l2.5,3.2c0,0,0,0,0,0c0.2,0.2,0.7,0.8,1.2,1.2c0.3,0.2,0.7,0.4,1,0.4h5.8
		c0,0,0,0,0,0c0.8,0,1.3-0.1,1.7-0.4c0.3-0.2,0.4-0.4,0.5-0.6c0.1-0.2,0.1-0.5,0-0.8c-0.1-0.4-0.4-0.7-0.8-1c0,0,0,0-0.1,0
		c-0.4,0-1.5-0.1-2.6-0.5c-1.2-0.5-1.6-2.2-1.7-2.9C62.1-39.3,55.8-39.3,55.8-39.3z M66.3-36.3c-0.1-0.7-0.4-1.4-0.9-1.9
		c-0.6-0.6-1.5-1-2.9-1.1c0.1,0.6,0.4,2.1,1.4,2.5C64.9-36.5,65.8-36.4,66.3-36.3L66.3-36.3z"/>
</g>
<g>
	<path class="st1" d="M7.5-27.1v1h-1v1.4h1v1H9v-1h1v-1.4H9v-1H7.5z M9.6-25.7v0.7h-1v1H7.9v-1h-1v-0.7h1v-1h0.7v1L9.6-25.7z"/>
	<path class="st1" d="M5.7-25.4c0,0.5,0.1,1,0.4,1.4c0.3,0.4,0.7,0.7,1.1,0.9c0.5,0.2,1,0.2,1.4,0.1c0.5-0.1,0.9-0.3,1.3-0.7
		c0.3-0.3,0.6-0.8,0.7-1.3c0.1-0.5,0-1-0.1-1.4c-0.2-0.5-0.5-0.8-0.9-1.1c-0.4-0.3-0.9-0.4-1.4-0.4c-0.7,0-1.3,0.3-1.8,0.7
		C6-26.7,5.7-26.1,5.7-25.4z M10.4-25.4c0,0.4-0.1,0.8-0.4,1.2c-0.2,0.3-0.6,0.6-1,0.8c-0.4,0.2-0.8,0.2-1.2,0.1
		c-0.4-0.1-0.8-0.3-1.1-0.6c-0.3-0.3-0.5-0.7-0.6-1.1c-0.1-0.4,0-0.8,0.1-1.2c0.2-0.4,0.4-0.7,0.8-1c0.3-0.2,0.8-0.4,1.2-0.4
		c0.6,0,1.1,0.2,1.5,0.6C10.1-26.5,10.4-26,10.4-25.4z"/>
	<path class="st1" d="M9.8-30.3c0-0.5-0.4-0.4-3.1-0.4v1.8h2.7C9.9-28.9,9.8-29.4,9.8-30.3z M7.1-30.3h2.3c0,0,0,1,0,1H7.1L7.1-30.3
		z"/>
	<path class="st1" d="M5.8-28.9v-1.8H3.9v1.8C5.8-28.9,5.5-28.9,5.8-28.9z M5.4-29.2H4.3v-1.1h1.1V-29.2z"/>
	<path class="st1" d="M-3.6-26c0,0.5,0.5,0.4,2.2,0.4v-2.1C-3.9-27.8-3.6-28.1-3.6-26z M-1.8-26h-1.4v-1.4h1.4L-1.8-26z"/>
	<path class="st1" d="M3-30.7H1.1v1.8H3V-30.7z M2.6-29.2H1.5v-1.1h1.1V-29.2z"/>
	<path class="st1" d="M0.2-30.7h-1.9v1.8h1.9L0.2-30.7z M-0.2-29.2h-1.1v-1.1h1.1L-0.2-29.2z"/>
	<path class="st1" d="M1.7-27.8h-2.2v2.1h2.2V-27.8z M1.3-26h-1.4v-1.4h1.4V-26z"/>
	<path class="st1" d="M4.8-27.4c0-0.5-0.5-0.4-2.1-0.4v2.1C5.2-25.6,4.8-25.3,4.8-27.4z M3-27.4h1.4v1.4H3V-27.4z"/>
	<path class="st1" d="M16.4-20.4h-1.1v-11c0-0.2-0.1-0.4-0.2-0.5c-0.1-0.1-0.3-0.2-0.5-0.2H11v11.7H4.8v-3.7c0-0.6-0.1-0.4-8-0.4
		c-0.5,0-0.4,0.3-0.4,4.1H-4v-8.4h1.3v-1.8H-4v-1.1H9.8v-2.9c0-0.2-0.1-0.4-0.2-0.5c-0.1-0.1-0.3-0.2-0.5-0.2H-5.3
		c-0.1,0-0.2,0-0.3,0.1c-0.1,0-0.2,0.1-0.2,0.2C-5.9-35.1-5.9-35-6-34.9c0,0.1-0.1,0.2-0.1,0.3v14.2h-1.1c-0.6,0-0.5,0.7-0.5,1.3
		c0,0.1,0.1,0.3,0.2,0.4c0.1,0.1,0.2,0.2,0.4,0.2h23.6c0.6,0,0.5-0.7,0.5-1.3c0-0.1,0-0.1,0-0.2c0-0.1-0.1-0.1-0.1-0.2
		c0,0-0.1-0.1-0.2-0.1C16.6-20.4,16.5-20.4,16.4-20.4z M16.4-19H-7.1c0,0-0.1,0-0.1,0s0-0.1,0-0.1c0-1.2-0.3-0.9,1.6-0.9
		C-5.6-35.5-5.8-35-5.3-35c15.2,0,14.7-0.2,14.7,0.3v2.5H-4.4v1.9H-3v1.1h-1.3v9.2h1.2v-4.1h7.6v4.1h7v-11.7c3.3,0,3.6-0.1,3.6,0.3
		V-20c1.3,0,1.6-0.1,1.6,0.2C16.6-19.3,16.7-19,16.4-19L16.4-19z"/>
	<path class="st1" d="M-0.5-20h1.9v-3.8h-1.9V-20z M-0.1-23.4H1v3h-1.1V-23.4z"/>
</g>
<g>
	<path class="st1" d="M-30.4-15.7v1h-1v1.4h1v1h1.4v-1h1v-1.4h-1v-1H-30.4z M-28.4-14.3v0.7h-1v1H-30v-1h-1v-0.7h1v-1h0.7v1
		L-28.4-14.3z"/>
	<path class="st1" d="M-32.2-14c0,0.5,0.1,1,0.4,1.4c0.3,0.4,0.7,0.7,1.1,0.9s1,0.2,1.4,0.1c0.5-0.1,0.9-0.3,1.3-0.7
		c0.3-0.3,0.6-0.8,0.7-1.3c0.1-0.5,0-1-0.1-1.4s-0.5-0.8-0.9-1.1c-0.4-0.3-0.9-0.4-1.4-0.4c-0.7,0-1.3,0.3-1.8,0.7
		C-31.9-15.3-32.2-14.6-32.2-14z M-27.6-14c0,0.4-0.1,0.8-0.4,1.2c-0.2,0.3-0.6,0.6-1,0.8c-0.4,0.2-0.8,0.2-1.2,0.1
		c-0.4-0.1-0.8-0.3-1.1-0.6c-0.3-0.3-0.5-0.7-0.6-1.1c-0.1-0.4,0-0.8,0.1-1.2c0.2-0.4,0.4-0.7,0.8-1c0.3-0.2,0.8-0.4,1.2-0.4
		c0.6,0,1.1,0.2,1.5,0.6C-27.8-15.1-27.6-14.5-27.6-14z"/>
	<path class="st1" d="M-28.2-18.9c0-0.5-0.4-0.4-3.1-0.4v1.8h2.7C-28-17.4-28.2-18-28.2-18.9z M-30.9-18.9h2.3c0,0,0,1,0,1h-2.3
		L-30.9-18.9z"/>
	<path class="st1" d="M-32.2-17.4v-1.8h-1.9v1.8C-32.2-17.4-32.5-17.4-32.2-17.4z M-32.6-17.8h-1.1v-1.1h1.1V-17.8z"/>
	<path class="st1" d="M-41.5-14.6c0,0.5,0.5,0.4,2.2,0.4v-2.1C-41.8-16.3-41.5-16.7-41.5-14.6z M-39.7-14.6h-1.4v-1.4h1.4
		L-39.7-14.6z"/>
	<path class="st1" d="M-35-19.3h-1.9v1.8h1.9V-19.3z M-35.4-17.8h-1.1v-1.1h1.1V-17.8z"/>
	<path class="st1" d="M-37.8-19.3h-1.9v1.8h1.9L-37.8-19.3z M-38.2-17.8h-1.1v-1.1h1.1L-38.2-17.8z"/>
	<path class="st1" d="M-36.2-16.3h-2.2v2.1h2.2V-16.3z M-36.6-14.6H-38v-1.4h1.4V-14.6z"/>
	<path class="st1" d="M-33.2-15.9c0-0.5-0.5-0.4-2.1-0.4v2.1C-32.7-14.2-33.2-13.9-33.2-15.9z M-34.9-15.9h1.4v1.4h-1.4V-15.9z"/>
	<path class="st1" d="M-21.5-9h-1.1v-11c0-0.2-0.1-0.4-0.2-0.5c-0.1-0.1-0.3-0.2-0.5-0.2H-27V-9h-6.2v-3.7c0-0.6-0.1-0.4-8-0.4
		c-0.5,0-0.4,0.3-0.4,4.1h-0.4v-8.4h1.3v-1.8h-1.3v-1.1h13.8v-2.9c0-0.2-0.1-0.4-0.2-0.5s-0.3-0.2-0.5-0.2h-14.4
		c-0.1,0-0.2,0-0.3,0.1s-0.2,0.1-0.2,0.2c-0.1,0.1-0.1,0.1-0.2,0.2c0,0.1-0.1,0.2-0.1,0.3V-9h-1.1c-0.6,0-0.5,0.7-0.5,1.3
		c0,0.1,0.1,0.3,0.2,0.4c0.1,0.1,0.2,0.2,0.4,0.2h23.6c0.6,0,0.5-0.7,0.5-1.3c0-0.1,0-0.1,0-0.2c0-0.1-0.1-0.1-0.1-0.2
		c0,0-0.1-0.1-0.2-0.1C-21.4-9-21.4-9-21.5-9z M-21.5-7.5h-23.6c0,0-0.1,0-0.1,0c0,0,0-0.1,0-0.1c0-1.2-0.3-0.9,1.6-0.9
		c0-15.5-0.2-14.9,0.3-14.9c15.2,0,14.7-0.2,14.7,0.3v2.5h-13.8v1.9h1.3v1.1h-1.3v9.2h1.2v-4.1h7.6v4.1h7v-11.7
		c3.3,0,3.6-0.1,3.6,0.3v11.4c1.3,0,1.6-0.1,1.6,0.2C-21.4-7.9-21.3-7.5-21.5-7.5L-21.5-7.5z"/>
	<path class="st1" d="M-38.4-8.6h1.9v-3.8h-1.9V-8.6z M-38-12h1.1v3H-38V-12z"/>
</g>
<g>
	<path class="st1" d="M72.7,10.6c0-1.7-0.5-3.4-1.5-4.8c0.2-0.2,0.4-0.6,0.4-1.2c0-0.1,0.2-3.6,0.1-5.2c-0.1-0.9-0.6-1.6-1.4-1.8
		c-0.2-0.1-0.5-0.2-0.9,0c-0.2,0.1-0.2,0.4-0.1,0.6c0.1,0.2,0.3,0.2,0.5,0.1c0,0,0.1,0,0.1,0c0.5,0.2,0.8,0.5,0.9,1.1
		c0.2,1.5-0.1,5-0.1,5.1c0,0.4-0.1,0.7-0.4,0.8l-0.1,0.1c-0.2,0.1-0.5,0-0.8-0.3c0,0-2.8-2.2-3.8-3.4c-0.4-0.4-0.4-0.9-0.2-1.4
		c0-0.1,0.1-0.1,0.1-0.1c0.2-0.1,0.3-0.3,0.3-0.5c0-0.2-0.3-0.4-0.5-0.3c-0.4,0.1-0.5,0.4-0.6,0.6c-0.4,0.8-0.3,1.6,0.3,2.3
		c1.1,1.2,3.8,3.4,3.9,3.5c0.5,0.4,0.9,0.5,1.2,0.5c0.1,0,0.3,0,0.4-0.1c0.9,1.2,1.4,2.6,1.4,4.1h-3.7c-0.1-0.9-0.2-1.8-0.4-2.5
		c0,0,0.1,0,0.1-0.1c0.2-0.1,0.3-0.2,0.5-0.2c0.2-0.1,0.3-0.4,0.2-0.6c-0.1-0.2-0.4-0.3-0.6-0.2c-0.1,0.1-0.3,0.1-0.4,0.2
		c0,0,0,0,0,0c-0.7-1.8-1.7-2.9-3-2.9c-1.3,0-2.5,1.3-3.1,3.3c-0.3,0.8-0.5,1.8-0.5,2.9H57c0.1-1.6,0.6-3.2,1.7-4.4
		C58.8,6,59,6.1,59.2,6.1c0.2,0,0.4,0.1,0.5,0.1c0.3,0,0.7-0.1,1-0.3c0.5-0.3,0.8-0.7,1-1.3c0.1-0.5,0.1-1.1-0.2-1.6
		c-0.3-0.5-0.7-0.8-1.3-1s-1.1-0.1-1.6,0.2c-0.5,0.3-0.8,0.7-1,1.3c-0.1,0.5-0.1,1.1,0.2,1.6c0,0,0.1,0.1,0.1,0.1
		c-1.2,1.5-1.9,3.3-1.9,5.3c0,0.1,0,0.2,0,0.2c0,2,0.9,3.9,2.2,5.4c1.6,1.7,3.8,2.6,6.1,2.6h0c0,0,0,0,0,0c2.3,0,4.4-1,6-2.6
		c1.4-1.5,2.2-3.4,2.2-5.4C72.7,10.7,72.7,10.6,72.7,10.6z M64.8,13.8c0.8,0,1.5,0.2,2.2,0.5c-0.4,2-1.3,3.3-2.2,3.6V13.8z M64,17.9
		c-0.9-0.4-1.7-1.7-2.1-3.6c0.7-0.2,1.4-0.4,2.1-0.4V17.9z M64,12.9c-0.8,0-1.5,0.2-2.3,0.4c-0.1-0.6-0.1-1.2-0.1-1.9
		c0-0.1,0-0.2,0-0.3H64V12.9z M62.5,17.7c-1.2-0.3-2.3-0.9-3.2-1.8c0.5-0.5,1.2-1,1.8-1.3C61.4,15.9,61.9,16.9,62.5,17.7z
		 M67.8,14.6c0.6,0.3,1.2,0.8,1.7,1.3c-0.9,0.8-1.9,1.5-3.1,1.8C67,16.9,67.5,15.9,67.8,14.6z M67.3,11.4c0,0.7,0,1.4-0.1,1.9
		c-0.8-0.3-1.5-0.4-2.4-0.5v-1.8h2.5C67.3,11.2,67.3,11.3,67.3,11.4z M64.8,10.3V8.4c0.7,0,1.4-0.2,2.1-0.4c0.2,0.7,0.3,1.4,0.4,2.2
		H64.8z M66.6,7.2c-0.6,0.2-1.2,0.3-1.8,0.3V5C65.5,5.2,66.1,6,66.6,7.2z M64,5v2.5c-0.6,0-1.2-0.1-1.7-0.3C62.7,6.1,63.3,5.3,64,5z
		 M62,8.1c0.6,0.2,1.3,0.3,1.9,0.3v1.9h-2.3C61.7,9.5,61.8,8.7,62,8.1z M58.5,3.8c0.1-0.3,0.3-0.6,0.5-0.7C59.2,3,59.5,3,59.7,3
		c0.1,0,0.2,0,0.3,0c0.3,0.1,0.6,0.3,0.7,0.5c0.2,0.3,0.2,0.6,0.1,0.9c-0.1,0.3-0.3,0.6-0.5,0.7c-0.3,0.2-0.6,0.2-0.9,0.1
		C59,5.2,58.8,5,58.6,4.7C58.5,4.5,58.5,4.2,58.5,3.8z M57,11.1h3.8c0,0.1,0,0.2,0,0.3c0,0.8,0.1,1.5,0.2,2.2
		c-0.8,0.4-1.6,0.9-2.3,1.6C57.7,14.1,57.1,12.7,57,11.1z M70.1,15.3c-0.6-0.6-1.4-1.2-2.2-1.5c0.1-0.7,0.2-1.5,0.2-2.3
		c0-0.1,0-0.2,0-0.3h3.7C71.7,12.7,71.1,14.1,70.1,15.3z"/>
</g>
<path class="st1" d="M-12.6,0.2H-25c0,0,0,0,0,0c0,0-0.1,0-0.1,0c0,0,0,0,0,0c0,0-0.1,0-0.1,0.1l-3.1,3.1c0,0-0.1,0.1-0.1,0.1
	c0,0,0,0,0,0c0,0,0,0.1,0,0.1c0,0,0,0,0,0v17.9c0,0.1,0,0.2,0.1,0.3c0.1,0.1,0.2,0.1,0.3,0.1h15.6c0.1,0,0.2,0,0.3-0.1
	s0.1-0.2,0.1-0.3v-21c0-0.1,0-0.2-0.1-0.3C-12.4,0.3-12.5,0.2-12.6,0.2z M-25.4,1.6v1.8h-1.8L-25.4,1.6z M-13,21.3h-14.8V4.1h2.7
	c0.1,0,0.2,0,0.3-0.1c0.1-0.1,0.1-0.2,0.1-0.3V1H-13V21.3z M-23.1,9.2c0-0.1,0-0.2,0.1-0.3s0.2-0.1,0.3-0.1h8.6c0.1,0,0.2,0,0.3,0.1
	s0.1,0.2,0.1,0.3c0,0.1,0,0.2-0.1,0.3s-0.2,0.1-0.3,0.1h-8.6c-0.1,0-0.2,0-0.3-0.1S-23.1,9.3-23.1,9.2z M-23.1,12.3
	c0-0.1,0-0.2,0.1-0.3s0.2-0.1,0.3-0.1h8.6c0.1,0,0.2,0,0.3,0.1s0.1,0.2,0.1,0.3c0,0.1,0,0.2-0.1,0.3s-0.2,0.1-0.3,0.1h-8.6
	c-0.1,0-0.2,0-0.3-0.1S-23.1,12.4-23.1,12.3z M-23.1,15.4c0-0.1,0-0.2,0.1-0.3c0.1-0.1,0.2-0.1,0.3-0.1h8.6c0.1,0,0.2,0,0.3,0.1
	c0.1,0.1,0.1,0.2,0.1,0.3s0,0.2-0.1,0.3s-0.2,0.1-0.3,0.1h-8.6c-0.1,0-0.2,0-0.3-0.1S-23.1,15.5-23.1,15.4z M-23.1,18.5
	c0-0.1,0-0.2,0.1-0.3s0.2-0.1,0.3-0.1h8.6c0.1,0,0.2,0,0.3,0.1s0.1,0.2,0.1,0.3c0,0.1,0,0.2-0.1,0.3s-0.2,0.1-0.3,0.1h-8.6
	c-0.1,0-0.2,0-0.3-0.1S-23.1,18.6-23.1,18.5z M-22.7,5.7h1.2v1.2c0,0.1,0,0.2,0.1,0.3s0.2,0.1,0.3,0.1h1.6c0.1,0,0.2,0,0.3-0.1
	s0.1-0.2,0.1-0.3V5.7h1.2c0.1,0,0.2,0,0.3-0.1s0.1-0.2,0.1-0.3V3.7c0-0.1,0-0.2-0.1-0.3c-0.1-0.1-0.2-0.1-0.3-0.1h-1.2V2.2
	c0-0.1,0-0.2-0.1-0.3c-0.1-0.1-0.2-0.1-0.3-0.1h-1.6c-0.1,0-0.2,0-0.3,0.1c-0.1,0.1-0.1,0.2-0.1,0.3v1.2h-1.2c-0.1,0-0.2,0-0.3,0.1
	c-0.1,0.1-0.1,0.2-0.1,0.3v1.6c0,0.1,0,0.2,0.1,0.3S-22.8,5.7-22.7,5.7z M-22.3,4.1h1.2c0.1,0,0.2,0,0.3-0.1
	c0.1-0.1,0.1-0.2,0.1-0.3V2.6h0.8v1.2c0,0.1,0,0.2,0.1,0.3c0.1,0.1,0.2,0.1,0.3,0.1h1.2v0.8h-1.2c-0.1,0-0.2,0-0.3,0.1
	S-20,5.2-20,5.3v1.2h-0.8V5.3c0-0.1,0-0.2-0.1-0.3s-0.2-0.1-0.3-0.1h-1.2V4.1z M-24.5,8.1c0.1-0.1,0.2-0.1,0.3-0.1
	c0.1,0,0.2,0,0.3,0.1c0.1,0.1,0.1,0.2,0.1,0.3c0,0.1,0,0.2-0.1,0.3l-1.6,1.6c0,0-0.1,0.1-0.1,0.1c0,0-0.1,0-0.1,0s-0.1,0-0.1,0
	c0,0-0.1,0-0.1-0.1l-0.8-0.8C-26.9,9.4-27,9.3-27,9.2c0-0.1,0-0.2,0.1-0.3c0.1-0.1,0.2-0.1,0.3-0.1c0.1,0,0.2,0,0.3,0.1l0.5,0.5
	L-24.5,8.1z M-24,11.3c0,0,0.1,0.1,0.1,0.1c0,0,0,0.1,0,0.1c0,0.1,0,0.1,0,0.1c0,0,0,0.1-0.1,0.1l-1.6,1.6c0,0-0.1,0.1-0.1,0.1
	c0,0-0.1,0-0.1,0s-0.1,0-0.1,0c0,0-0.1,0-0.1-0.1l-0.8-0.8c-0.1-0.1-0.1-0.2-0.1-0.3c0-0.1,0-0.2,0.1-0.3c0.1-0.1,0.2-0.1,0.3-0.1
	c0.1,0,0.2,0,0.3,0.1l0.5,0.5l1.3-1.3c0,0,0.1-0.1,0.1-0.1c0,0,0.1,0,0.1,0c0.1,0,0.1,0,0.1,0C-24.1,11.2-24,11.2-24,11.3z
	 M-24.3,14.3h-2.3c-0.1,0-0.2,0-0.3,0.1c-0.1,0.1-0.1,0.2-0.1,0.3v1.6c0,0.1,0,0.2,0.1,0.3c0.1,0.1,0.2,0.1,0.3,0.1h2.3
	c0.1,0,0.2,0,0.3-0.1c0.1-0.1,0.1-0.2,0.1-0.3v-1.6c0-0.1,0-0.2-0.1-0.3S-24.2,14.3-24.3,14.3z M-24.6,15.8h-1.6V15h1.6V15.8z
	 M-24.3,17.4h-2.3c-0.1,0-0.2,0-0.3,0.1c-0.1,0.1-0.1,0.2-0.1,0.3v1.6c0,0.1,0,0.2,0.1,0.3c0.1,0.1,0.2,0.1,0.3,0.1h2.3
	c0.1,0,0.2,0,0.3-0.1s0.1-0.2,0.1-0.3v-1.6c0-0.1,0-0.2-0.1-0.3S-24.2,17.4-24.3,17.4z M-24.6,18.9h-1.6v-0.8h1.6V18.9z"/>
<g>
	<path class="st1" d="M4.1,12.4L4.8,13C4.9,13.1,5,13.3,5,13.5l0.3,7.2c0,0.7,0.6,1.3,1.3,1.3h2.1c0.7,0,1.3-0.6,1.3-1.3l0.1-3.7
		c0.3,0.6,0.8,1.1,1.3,1.6l3.6,3.3c0.1,0.1,0.3,0.1,0.4,0l3.6-3.3c1.4-1.2,2.1-3,2.1-4.8V7.3c0-0.2-0.1-0.3-0.3-0.3
		c-0.1,0-0.1,0-0.2,0l-2.2,1.1c-0.6,0.3-1.4,0.3-2-0.1l-1.1-0.7c-0.1-0.1-0.3-0.1-0.4,0L14.1,8c-0.6,0.4-1.4,0.4-2,0.1l-0.3-0.1V7.1
		c0-1.3-1.1-2.4-2.4-2.4H6c-1.3,0-2.4,1.1-2.4,2.4v4.2C3.6,11.8,3.8,12.1,4.1,12.4z M14.5,8.5l0.9-0.6l0.9,0.6
		c0.8,0.5,1.8,0.6,2.7,0.1l1.7-0.9v5.9c0,1.6-0.7,3.2-1.9,4.3l-3.4,3.1L12,18c-1.2-1.1-1.9-2.7-1.9-4.3V7.8l1.7,0.9
		C12.7,9.1,13.7,9.1,14.5,8.5L14.5,8.5z M4.3,7.1c0-1,0.8-1.7,1.7-1.7h3.4c1,0,1.7,0.8,1.7,1.7v0.5L9.9,7c-0.2-0.1-0.4,0-0.4,0.1
		c0,0,0,0.1,0,0.2v6.4c0,0.6,0.1,1.2,0.2,1.8c0,0,0,0.1,0,0.1l-0.2,5c0,0.4-0.3,0.6-0.7,0.6H6.6c-0.4,0-0.7-0.3-0.7-0.6l-0.3-7.2
		c0-0.4-0.2-0.7-0.5-1l-0.7-0.6c-0.2-0.1-0.2-0.3-0.2-0.5V7.1z"/>
	<path class="st1" d="M7.7,4.5c1.2,0,2.2-1,2.2-2.2s-1-2.2-2.2-2.2c-1.2,0-2.2,1-2.2,2.2v0C5.5,3.5,6.5,4.5,7.7,4.5z M7.7,0.8
		c0.8,0,1.5,0.7,1.5,1.5S8.6,3.8,7.7,3.8c-0.8,0-1.5-0.7-1.5-1.5C6.2,1.5,6.9,0.8,7.7,0.8z"/>
	<path class="st1" d="M11.2,9.1c-0.2-0.1-0.4,0-0.4,0.1c0,0,0,0.1,0,0.2v4.3c0,1.5,0.6,2.8,1.7,3.8l2.8,2.5c0.1,0.1,0.3,0.1,0.4,0
		l2.8-2.5c1.1-1,1.7-2.4,1.7-3.8V9.4c0-0.2-0.1-0.3-0.3-0.3c-0.1,0-0.1,0-0.2,0l-0.3,0.1C18.2,9.8,17,9.7,16,9.1l-0.4-0.2
		c-0.1-0.1-0.3-0.1-0.4,0l-0.4,0.2c-1,0.7-2.3,0.7-3.4,0.2L11.2,9.1z M11.4,13.7v-1.6l3.7,0.9v6l-2.2-2C11.9,16.2,11.4,15,11.4,13.7
		z M17.9,17l-2.2,2v-6l3.7-0.9v1.6C19.4,15,18.9,16.2,17.9,17z M19.4,9.9v1.5l-3.7,0.9V9.7C16.9,10.4,18.2,10.5,19.4,9.9z M15.1,9.7
		v2.6l-3.7-0.9V9.9C12.6,10.5,14,10.4,15.1,9.7z"/>
</g>
</svg>
